<?xml version="1.0" ?><!-- Uploaded to: SVGRepo, www.svgrepo.com, Transformed by: SVGRepo Tools -->
<svg width="800px" height="800px" viewBox="0 0 64 64" data-name="Layer 1" id="Layer_1" xmlns="http://www.w3.org/2000/svg"><defs><style>.cls-1{fill:#0074ff;}.cls-2{fill:#ffb300;}</style></defs><title/><path class="cls-1" d="M7.5,50.46a2,2,0,0,1-2-2V46.78a2,2,0,0,1,2-2H41.61a2,2,0,0,1,0,4H9.47A2,2,0,0,1,7.5,50.46Z"/><path class="cls-1" d="M56.5,59.06H7.5a2,2,0,0,1-2-2v-1.2a2,2,0,0,1,3.83-.8H54.5V48.78H39.86a2,2,0,0,1,0-4H56.5a2,2,0,0,1,2,2V57.06A2,2,0,0,1,56.5,59.06Z"/><path class="cls-2" d="M32,40a2,2,0,0,1-1.41-.58L19.52,28.39a2,2,0,0,1,2.83-2.83L32,35.21l9.65-9.65a2,2,0,0,1,2.83,2.83L33.41,39.45A2,2,0,0,1,32,40Z"/><path class="cls-2" d="M32,40a2,2,0,0,1-2-2V6.94a2,2,0,1,1,4,0V38A2,2,0,0,1,32,40Z"/></svg>