<?xml version="1.0" encoding="iso-8859-1"?>
<!-- Uploaded to: SVGRepo, www.svgrepo.com, Transformed by: SVGRepo Tools -->
<svg version="1.1" id="Layer_1" xmlns="http://www.w3.org/2000/svg" xmlns:xlink="http://www.w3.org/1999/xlink" 
	 viewBox="0 0 400.531 400.531" xml:space="preserve">
<g>
	<g id="XMLID_16_">
		<g>
			
				<rect x="41.55" y="218.571" transform="matrix(-0.7071 0.7071 -0.7071 -0.7071 540.3904 239.2355)" style="fill:#DD4B1D;" width="358.197" height="25.93"/>
			<polygon style="fill:#CCCCCC;" points="373.786,96.737 356.462,114.061 338.127,95.726 304.808,62.407 286.465,44.065 
				303.79,26.741 			"/>
			<path style="fill:#008DB3;" d="M393.507,77.016l-19.721,19.721L303.79,26.741l19.721-19.722c9.362-9.362,24.53-9.355,33.885,0
				l36.112,36.112C402.869,52.493,402.869,67.654,393.507,77.016z"/>
			<path style="fill:#CCCCCC;" d="M103.176,367.347l-47.885,15.401l-0.007-0.007c-2.737-8.507-7.474-16.511-14.234-23.271
				c-6.753-6.753-14.757-11.49-23.271-14.22l15.401-47.899l18.342,18.342l33.319,33.319L103.176,367.347z"/>
			<path style="fill:#808080;" d="M55.291,382.748L0.002,400.531l17.777-55.282c8.514,2.729,16.518,7.467,23.271,14.22
				c6.76,6.76,11.498,14.764,14.234,23.271L55.291,382.748z"/>
			
				<rect x="15.723" y="182.149" transform="matrix(-0.7071 0.7071 -0.7071 -0.7071 478.0392 213.4081)" style="fill:#F4581B;" width="358.197" height="47.12"/>
			
				<rect x="-10.106" y="166.909" transform="matrix(-0.7071 0.7071 -0.7071 -0.7071 415.6807 187.5766)" style="fill:#DD4B1D;" width="358.197" height="25.94"/>
		</g>
	</g>
</g>
<g>
</g>
<g>
</g>
<g>
</g>
<g>
</g>
<g>
</g>
<g>
</g>
<g>
</g>
<g>
</g>
<g>
</g>
<g>
</g>
<g>
</g>
<g>
</g>
<g>
</g>
<g>
</g>
<g>
</g>
</svg>
