<?xml version="1.0" ?><!-- Uploaded to: SVGRepo, www.svgrepo.com, Transformed by: SVGRepo Tools -->
<svg width="800px" height="800px" viewBox="0 0 64 64" data-name="Layer 1" id="Layer_1" xmlns="http://www.w3.org/2000/svg"><defs><style>.cls-1{fill:#0074ff;}.cls-2{fill:#ffb300;}</style></defs><title/><path class="cls-1" d="M41,59.06H7.5a2,2,0,0,1-2-2V46.78a2,2,0,0,1,2-2H53.61a2,2,0,0,1,0,4H9.5v6.28H41a2,2,0,0,1,0,4Z"/><path class="cls-1" d="M56.5,59.06H51.73a2,2,0,1,1,0-4H54.5V48.78H52.86a2,2,0,0,1,0-4H56.5a2,2,0,0,1,2,2V57.06A2,2,0,0,1,56.5,59.06Z"/><path class="cls-2" d="M43.06,20a2,2,0,0,1-1.41-.59L32,9.77l-9.65,9.64a2,2,0,0,1-2.83-2.83L30.59,5.52a2,2,0,0,1,2.82,0L44.48,16.58a2,2,0,0,1,0,2.83A2,2,0,0,1,43.06,20Z"/><path class="cls-2" d="M32,40a2,2,0,0,1-2-2V6.94a2,2,0,1,1,4,0V38A2,2,0,0,1,32,40Z"/></svg>